<svg width="432" height="427" fill="none" xmlns="http://www.w3.org/2000/svg"><path d="M257.488.185A75.102 75.102 0 01283.92 57.67a73.523 73.523 0 01-141.451 28.136 73.524 73.524 0 01-5.597-28.137 74.763 74.763 0 0123.097-54.234A218.647 218.647 0 00.003 215.325a219.505 219.505 0 00124.893 198.973c-17.109-24.38-26.604-59.88-26.518-110.265a548.666 548.666 0 0126.433-173.224 104.96 104.96 0 00108.81 31.308 880.048 880.048 0 00-19.247 100.77c-8.554 90.675 11.719 149.272 59.88 163.558a218.897 218.897 0 00113.097-78.671 218.898 218.898 0 0043.703-130.653v-3.592A218.395 218.395 0 00257.488.185z" fill="#fff"/></svg>