<svg width="24" height="22" fill="none" xmlns="http://www.w3.org/2000/svg"><path fill-rule="evenodd" clip-rule="evenodd" d="M2.814.178L.886.71l3.831 13.888a3.58 3.58 0 001.008 7.012 3.578 3.578 0 003.576-3.452h7.075a3.578 3.578 0 10.528-2h-8.13a3.587 3.587 0 00-1.977-1.54l-.155-.564H21.06l2.253-10.362.434-2H3.232L2.814.178zm1.282 3.514l2.084 8.362h13.268l1.818-8.362H4.096zm1.63 15.918a1.578 1.578 0 100-3.156 1.578 1.578 0 000 3.156zm14.226 0a1.578 1.578 0 100-3.156 1.578 1.578 0 000 3.156z" fill="#101A24"/></svg>