<svg width="15" height="16" fill="none" xmlns="http://www.w3.org/2000/svg"><g clip-path="url(#clip0)" fill="#214FA8"><path d="M3.542 13.632c0 .81.656 1.465 1.465 1.465h4.986c.809 0 1.465-.656 1.465-1.465v-8.21H3.542v8.21zm2.213-4.087l2.09-2.846a.44.44 0 11.708.52L6.977 9.365h1.914a.44.44 0 01.356.696l-2.434 3.386a.44.44 0 11-.714-.513l1.934-2.69H6.11a.44.44 0 01-.354-.7zm5.117-7.321H4.128a.586.586 0 00-.586.586v1.732h7.916V2.81a.586.586 0 00-.586-.586zM8.947.244A.147.147 0 008.8.097H6.2a.147.147 0 00-.147.147V1.34h2.894V.244z"/></g><defs><clipPath id="clip0"><path fill="#fff" transform="translate(0 .097)" d="M0 0h15v15H0z"/></clipPath></defs></svg>