<svg width="16" height="16" fill="none" xmlns="http://www.w3.org/2000/svg"><g clip-path="url(#clip0)" fill="#214FA8"><path d="M5.658 11.489h-.031V9.46a.469.469 0 00-.469-.469H1.162a.469.469 0 00-.468.469v2.029H.663a.469.469 0 00-.469.468v1.249c0 .259.21.469.469.469h4.995c.258 0 .468-.21.468-.469v-1.249a.469.469 0 00-.468-.468zm-.969 0H1.631v-1.56h3.058v1.56zm7.539-6.249h-1.055a1.612 1.612 0 00-.75-.835 2.582 2.582 0 00-2.546-2.144c-1.213 0-2.25.85-2.517 2a1.608 1.608 0 00-1.146.979H3.16a.469.469 0 00-.469.468v2.345h.938V6.177h.513c.161.715.8 1.25 1.563 1.25H9.75c.649 0 1.329-.507 1.496-1.25h.513v1.876h.938V5.708a.469.469 0 00-.47-.468zm2.497 6.249h-.03V9.46a.469.469 0 00-.47-.469H10.23a.469.469 0 00-.469.469v2.029h-.03a.469.469 0 00-.47.468v1.249c0 .259.21.469.47.469h4.994c.26 0 .469-.21.469-.469v-1.249a.469.469 0 00-.469-.468zm-.968 0h-3.058v-1.56h3.058v1.56z"/></g><defs><clipPath id="clip0"><path fill="#fff" transform="translate(.194 .468)" d="M0 0h15v15H0z"/></clipPath></defs></svg>