<svg width="37" height="37" fill="none" xmlns="http://www.w3.org/2000/svg"><g clip-path="url(#clip0)"><path d="M9.613.816a2.257 2.257 0 00-2.25 2.25v31.5a2.257 2.257 0 002.25 2.25h22.5a2.257 2.257 0 002.25-2.25V9.816l-9-9H9.613z" fill="#ECEEF1"/><path d="M27.613 9.816h6.75l-9-9v6.75a2.257 2.257 0 002.25 2.25z" fill="#9AA0A7"/><path d="M29.863 30.066c0 .62-.506 1.125-1.125 1.125H3.988a1.128 1.128 0 01-1.125-1.125v-11.25c0-.618.507-1.125 1.125-1.125h24.75c.619 0 1.125.507 1.125 1.125v11.25z" fill="#DA3632"/><path d="M28.738 31.191H7.363v1.125h21.375c.619 0 1.125-.506 1.125-1.125v-1.125c0 .62-.506 1.125-1.125 1.125z" fill="#CAD1D8"/></g><defs><clipPath id="clip0"><path fill="#fff" transform="translate(.613 .816)" d="M0 0h36v36H0z"/></clipPath></defs></svg>