<svg width="49" height="49" fill="none" xmlns="http://www.w3.org/2000/svg"><g clip-path="url(#clip0)"><path d="M24.5 48.08a1.02 1.02 0 01-.43-.096c-4.998-2.377-11.322-2.547-19.902-.53a3 3 0 01-2.542-.587A2.994 2.994 0 01.5 44.52V12.3c0-1.123.648-2.173 1.652-2.674 4.224-2.134 7.92-3.288 11.296-3.524.532-.028 1.03.378 1.07.928a1.005 1.005 0 01-.928 1.068c-3.106.216-6.552 1.3-10.54 3.316a.994.994 0 00-.55.886v32.22a1.003 1.003 0 001.222.983c8.796-2.07 15.42-1.92 20.778.474 5.354-2.393 11.978-2.543 20.79-.471a.977.977 0 00.834-.199 1 1 0 00.376-.788V12.3a.994.994 0 00-.546-.883c-4.402-2.224-8.158-3.32-11.482-3.354a1 1 0 01.01-2h.01c3.638.038 7.682 1.206 12.362 3.568A3.007 3.007 0 0148.5 12.3v32.22c0 .917-.41 1.773-1.126 2.347a3.008 3.008 0 01-2.532.589c-8.59-2.02-14.914-1.853-19.914.525a.978.978 0 01-.428.099z" fill="#000"/><path d="M24.5 47.58a1 1 0 01-1-1v-21.5a1 1 0 012 0v21.5a1 1 0 01-1 1z" fill="#000"/><path d="M9.5 32.079a1.001 1.001 0 01-.954-1.296C13.068 16.28 18.64 6.399 25.578.573a2.09 2.09 0 012.026-.38c.66.232 1.136.79 1.278 1.49.932 4.74.768 8.784-.488 12.018a1 1 0 01-1.428.508L24.5 12.8v5.758a1 1 0 01-.4.8c-2.642 1.982-6.216 3.136-10.626 3.432a120.282 120.282 0 00-3.018 8.584c-.136.43-.53.704-.956.704zM26.92 2.073c-4.846 4.058-8.996 10.2-12.592 18.642 3.34-.342 6.082-1.236 8.172-2.668v-6.968a.999.999 0 011.496-.868l2.904 1.656c.762-2.69.77-5.978.02-9.794z" fill="#EE7304"/></g><defs><clipPath id="clip0"><path fill="#fff" transform="translate(.5 .08)" d="M0 0h48v48H0z"/></clipPath></defs></svg>