<svg width="27" height="15" fill="none" xmlns="http://www.w3.org/2000/svg"><g clip-path="url(#clip0)" fill="#214FA8"><path d="M1.461 2.051h15.266C17.147.863 18.325.005 19.712.005c1.386 0 2.565.858 2.984 2.046h2.383c.554 0 1.002.428 1.002.956 0 .527-.448.955-1.002.955h-2.383c-.42 1.188-1.598 2.047-2.985 2.047-1.386 0-2.565-.859-2.984-2.047H1.46C.908 3.962.46 3.534.46 3.007c0-.528.449-.956 1.002-.956zm18.25 2.047c.632 0 1.145-.49 1.145-1.091 0-.602-.513-1.091-1.145-1.091-.63 0-1.144.49-1.144 1.09 0 .602.513 1.092 1.145 1.092zM1.461 10.237h2.383C4.264 9.049 5.443 8.19 6.83 8.19s2.565.859 2.985 2.047h15.265c.554 0 1.002.428 1.002.955 0 .528-.448.956-1.002.956H9.814c-.42 1.188-1.599 2.046-2.985 2.046s-2.565-.858-2.985-2.046H1.461c-.553 0-1.002-.428-1.002-.956 0-.527.449-.955 1.002-.955zm5.368 2.046c.631 0 1.145-.49 1.145-1.09 0-.602-.514-1.092-1.145-1.092s-1.145.49-1.145 1.091c0 .602.514 1.091 1.145 1.091z"/></g><defs><clipPath id="clip0"><path fill="#fff" transform="matrix(-1 0 0 1 26.27 0)" d="M0 0h26v15H0z"/></clipPath></defs></svg>