<svg width="26" height="41" fill="none" xmlns="http://www.w3.org/2000/svg"><path d="M17.312 40.146c7.613-2.325 10.401-11.13 7.457-17.952-2.323-5.38-8.82-14.688-5.735-20.96a.393.393 0 00-.482-.548c-2.68.947-9.832 4.318-7.613 12.788 0 0-2.055-2.434-3.883-3.2a.393.393 0 00-.542.394c.388 5.121-3.254 7.864-5.36 12.188-1.89 3.877-1.08 7.661.858 11.035a13.502 13.502 0 008.594 6.416L13 40.042l1.861.565a13.214 13.214 0 002.451-.46z" fill="#F3D652"/><path d="M24.769 22.194c-2.323-5.38-8.82-14.688-5.735-20.96a.393.393 0 00-.482-.548C17.234 1.152 14.835 2.205 13 4.16v35.881l1.861.565a13.214 13.214 0 002.451-.46c7.613-2.326 10.401-11.13 7.457-17.953z" fill="#EDBE2C"/><path d="M18.268 30.812c-.668 1.181-1.98 1.333-1.98 1.333 2.474-7.216-.869-10.948-2.602-12.316a.393.393 0 00-.632.374c.702 4.384-5.993 8.756-6.49 13.076-.356 3.105 1.361 5.91 4.042 7.027 1.41.333 2.88.438 4.357.291 3.994-1.066 5.363-5.779 4.018-9.722a.393.393 0 00-.713-.063z" fill="#EDBE2C"/><path d="M18.98 30.875a.393.393 0 00-.712-.063c-.668 1.181-1.98 1.333-1.98 1.333 2.474-7.216-.869-10.948-2.602-12.316a.393.393 0 00-.633.374c.087.543.06 1.085-.053 1.627v18.816c.65.032 1.306.017 1.963-.049 3.994-1.066 5.363-5.779 4.018-9.722z" fill="#E69022"/></svg>