<svg width="47" height="46" fill="none" xmlns="http://www.w3.org/2000/svg"><g clip-path="url(#clip0)"><path d="M39.32 28.686a18.137 18.137 0 003.108-10.16C42.428 8.31 33.937 0 23.5 0 13.062 0 4.571 8.31 4.571 18.526c0 3.749 1.145 7.24 3.108 10.16L.275 39.254l8.473-1.546L10.328 46l6.982-9.967c1.94.66 4.023 1.018 6.19 1.018 2.166 0 4.248-.359 6.189-1.018L36.67 46l1.58-8.292 8.472 1.546-7.404-10.568zM11.824 39.069l-.862-4.523-4.621.843 3.118-4.45a19.002 19.002 0 005.261 3.996l-2.896 4.134zM7.34 18.526c0-8.72 7.249-15.815 16.158-15.815 8.91 0 16.159 7.095 16.159 15.815 0 8.72-7.249 15.815-16.159 15.815S7.341 27.246 7.341 18.526zm28.695 16.02l-.862 4.523-2.896-4.134a19.002 19.002 0 005.26-3.997l3.12 4.451-4.622-.843z" fill="#000"/><path d="M20.125 22.595l-4.504-4.408-1.958 1.917 6.462 6.325 13.211-12.93-1.958-1.917-11.253 11.013z" fill="#EE7304"/></g><defs><clipPath id="clip0"><path fill="#fff" d="M0 0h47v46H0z"/></clipPath></defs></svg>