<svg width="52" height="52" fill="none" xmlns="http://www.w3.org/2000/svg"><g clip-path="url(#clip0)"><path d="M51.292 22.505l-8.536-11.089a1 1 0 00-1.329-.233l-5.511 3.505h-7.188a.99.99 0 00-.275.046l-5.573 1.604-5.783-1.582-5.619-3.573a1 1 0 00-1.315.215L.722 23.093a1 1 0 00.126 1.386l4.948 4.259 4.44 5.983a3.538 3.538 0 00.078 4.916c.599.598 1.36.936 2.143 1.015a3.51 3.51 0 00.994 3.04 3.511 3.511 0 002.5 1.035l.037-.002-.001.072c0 .944.367 1.832 1.035 2.5a3.513 3.513 0 003.05.991 3.516 3.516 0 001.017 2.152 3.522 3.522 0 002.499 1.034c.905 0 1.81-.345 2.499-1.034l.54-.54.227.183c.683.661 1.57.992 2.458.992a3.524 3.524 0 003.532-3.588 3.527 3.527 0 003.587-3.585 3.514 3.514 0 002.554-1.035 3.524 3.524 0 001.033-2.554 3.525 3.525 0 002.555-1.033 3.54 3.54 0 00.464-4.424l3.242-6.79 4.873-4.193a1 1 0 00.14-1.368zM11.158 13.35l4.04 2.569L6.41 26.627l-3.522-3.032 8.271-10.245zm.57 22.703l1.22-1.22a1.53 1.53 0 01.949-.443h.025a1.525 1.525 0 011.225.475c.566.597.535 1.573-.067 2.175l-1.182 1.182a1.536 1.536 0 01-2.17 0 1.536 1.536 0 010-2.17zm3.138 6.224c-.29-.29-.45-.675-.45-1.085 0-.41.16-.794.45-1.084l2.364-2.365a1.55 1.55 0 011.744-.301c.597.284.933.932.845 1.584a1.618 1.618 0 01-.457.924l-2.327 2.327c-.29.29-.675.45-1.085.45-.41 0-.794-.16-1.084-.45zm3.57 3.605c-.29-.29-.45-.675-.45-1.085 0-.41.16-.794.45-1.084l2.364-2.365a1.551 1.551 0 011.855-.243c.541.315.825.934.732 1.55a1.62 1.62 0 01-.455.9l-2.326 2.327c-.29.29-.676.45-1.085.45-.41 0-.795-.16-1.085-.45zm4.067 3.144a1.536 1.536 0 010-2.17l1.22-1.219a1.613 1.613 0 01.117-.106c.199-.162.432-.27.68-.316l.018-.003c.043-.008.086-.014.13-.018l.053-.002c.035-.002.07-.005.107-.004a1.524 1.524 0 011.193.597c.46.6.398 1.494-.173 2.065l-1.176 1.176a1.536 1.536 0 01-2.17 0zm18.655-11.16a1.535 1.535 0 01-2.169 0 .926.926 0 00-.068-.062l-6.43-6.498a1 1 0 00-1.422 1.407l6.5 6.568.002.002a1.536 1.536 0 01-1.085 2.62c-.41 0-.795-.16-1.084-.45l-4.349-4.394a1 1 0 10-1.421 1.407l4.282 4.326a.956.956 0 00.07.079 1.536 1.536 0 010 2.17 1.536 1.536 0 01-2.17-.001l-2.373-2.398a1 1 0 00-1.422 1.406l2.307 2.331a.883.883 0 00.07.079 1.535 1.535 0 01-2.17 2.17c-.068-.07-.149-.122-.226-.182-.065-.05-.082-.084-.05-.163.033-.08.083-.154.116-.235.036-.09.066-.183.095-.276a3.605 3.605 0 00.13-1.539 3.519 3.519 0 00-1.494-2.434 3.51 3.51 0 00-1.488-.576c.258-1.136-.052-2.368-.856-3.218a3.508 3.508 0 00-2.625-1.106 3.53 3.53 0 00-.945-2.5 3.509 3.509 0 00-2.52-1.105 3.596 3.596 0 00-.853.09 3.507 3.507 0 00-1.169-2.142 3.506 3.506 0 00-2.26-.858 3.542 3.542 0 00-2.414.908L7.8 28.083l9.248-11.266 2.948.806-3.85 6.792a3.51 3.51 0 00-.33 2.685 3.51 3.51 0 001.819 2.216l.012.005a3.51 3.51 0 002.517.242 3.512 3.512 0 002.132-1.663l2.502-4.414 4.466.316 11.894 11.894a1.537 1.537 0 010 2.17zm.415-4.585L30.415 22.124a1.001 1.001 0 00-.636-.29l-5.469-.388a1.016 1.016 0 00-.94.505l-2.813 4.963c-.202.356-.53.613-.926.722-.394.11-.808.058-1.165-.144a1.524 1.524 0 01-.722-.925 1.522 1.522 0 01.144-1.166l3.754-6.626 1.521-.438.03-.01 5.679-1.64h6.86l8.565 10.889-2.724 5.705zm4.034-7.275l-7.92-10.074 4.042-2.571 7.401 9.613-3.523 3.032z" fill="#101A24"/><path d="M31.397 12.81a.997.997 0 00.707-.293l6.831-6.83a1 1 0 10-1.414-1.415l-6.831 6.831a1 1 0 00.707 1.707zM19.895 12.517a.997.997 0 001.415 0 1 1 0 000-1.414l-6.831-6.831a1 1 0 10-1.414 1.414l6.83 6.831zM26 12.81a1 1 0 001-1V6.157a1 1 0 00-2 0v5.653a1 1 0 001 1zM25.077 2.533c.159.384.554.637.972.615.412-.021.775-.3.902-.692a1.007 1.007 0 00-.343-1.1 1.01 1.01 0 00-1.163-.037c-.395.26-.547.78-.368 1.214z" fill="#EE7304"/></g><defs><clipPath id="clip0"><path fill="#fff" transform="translate(.5 .754)" d="M0 0h51v51H0z"/></clipPath></defs></svg>