<svg width="46" height="46" fill="none" xmlns="http://www.w3.org/2000/svg"><path d="M28.378 25.632a.897.897 0 100 1.794.897.897 0 000-1.794z" fill="#EE7304"/><path d="M28.521 16.134l-2.014-1.162c.052-.342.078-.67.078-.99a6.5 6.5 0 00-.078-.99l2.014-1.163a.896.896 0 00.328-1.224L27.057 7.5a.897.897 0 00-1.225-.328L23.81 8.34a7.07 7.07 0 00-1.706-.975V4.75a.896.896 0 00-.896-.896h-3.585a.896.896 0 00-.897.896v2.616a7.22 7.22 0 00-1.704.974l-2.024-1.168a.896.896 0 00-1.224.328L9.98 10.605a.896.896 0 00.328 1.224l2.014 1.163c-.052.342-.078.67-.078.99 0 .32.026.648.078.99l-2.014 1.163a.896.896 0 00-.328 1.224l1.793 3.104a.896.896 0 001.224.328l2.024-1.168c.514.397 1.09.726 1.704.974v2.347c0 .495.402.897.896.897h3.586a.896.896 0 00.896-.897V20.6a7.061 7.061 0 001.706-.975l2.022 1.167a.895.895 0 001.225-.328l1.792-3.104a.896.896 0 00-.328-1.225zm-2.569 2.657l-1.794-1.036a.896.896 0 00-1.063.124 5.33 5.33 0 01-2.146 1.226.896.896 0 00-.638.858v2.085H18.52v-2.085a.896.896 0 00-.638-.858 5.32 5.32 0 01-2.144-1.225.896.896 0 00-1.064-.125l-1.795 1.036-.896-1.552 1.792-1.036a.896.896 0 00.424-.984 5.313 5.313 0 01-.16-1.237c0-.381.052-.786.16-1.238a.896.896 0 00-.424-.984l-1.792-1.035.896-1.553 1.795 1.037a.896.896 0 001.064-.125 5.32 5.32 0 012.144-1.226.896.896 0 00.638-.858V5.647h1.792V8c0 .396.26.744.638.858a5.329 5.329 0 012.146 1.226.896.896 0 001.063.125l1.794-1.036.897 1.552-1.793 1.035a.896.896 0 00-.424.984c.108.452.16.857.16 1.238 0 .38-.052.786-.16 1.237a.896.896 0 00.424.984l1.793 1.036-.897 1.552z" fill="#000"/><path d="M19.415 10.396a3.59 3.59 0 00-3.585 3.585 3.589 3.589 0 003.585 3.586A3.589 3.589 0 0023 13.982a3.59 3.59 0 00-3.585-3.585zm0 5.378a1.795 1.795 0 01-1.792-1.792c0-.989.804-1.793 1.792-1.793.989 0 1.793.804 1.793 1.793 0 .988-.804 1.792-1.793 1.792z" fill="#000"/><path d="M24.792 25.632H12.245a.896.896 0 000 1.793h12.547a.896.896 0 000-1.793z" fill="#EE7304"/><path d="M43.255 14.878H40.03V2.688A2.692 2.692 0 0037.34 0H2.745A2.692 2.692 0 00.056 2.689V28.32a2.692 2.692 0 002.689 2.69h5.019v5.784a.896.896 0 001.432.719l3.945-2.941v3.249a2.692 2.692 0 002.69 2.688h16.404l6.323 5.282a.896.896 0 001.47-.688V40.51h3.227a2.692 2.692 0 002.69-2.688V17.566a2.692 2.692 0 00-2.69-2.688zM9.556 35.01v-4.896a.896.896 0 00-.896-.896H2.745a.897.897 0 01-.896-.897V2.69c0-.494.402-.897.896-.897H37.34c.494 0 .896.403.896.897V28.32a.897.897 0 01-.896.897H17.623a.896.896 0 00-.536.177l-7.53 5.615zm34.596 2.812a.897.897 0 01-.897.896h-4.122a.896.896 0 00-.897.896v3.573l-5.101-4.26a.896.896 0 00-.575-.209H15.83a.897.897 0 01-.896-.896v-4.586l2.986-2.226h19.42a2.692 2.692 0 002.689-2.689v-11.65h3.226c.495 0 .897.401.897.896v20.255z" fill="#101A24"/></svg>