<svg width="317" height="63" fill="none" xmlns="http://www.w3.org/2000/svg"><g clip-path="url(#clip0)"><g clip-path="url(#clip1)"><path d="M82.28 16.971l3.4 13.1c.16.59.3 1.2.44 1.84.14.64.28 1.37.42 2.2.19-1 .34-1.78.47-2.41.13-.63.26-1.23.36-1.63l3.17-13h7.43l-7.6 27.36h-6.83l-3.34-11.72c-.12-.42-.33-1.22-.61-2.43-.12-.53-.22-.95-.29-1.25-.07.26-.15.63-.26 1.11-.28 1.21-.5 2.07-.65 2.57l-3.28 11.72h-6.84l-7.61-27.46h7.43l3.1 13.1c.14.68.29 1.35.43 2 .14.65.27 1.37.4 2.09.11-.53.23-1.08.35-1.65.12-.57.33-1.4.59-2.46l3.41-13.08h5.91zM108.15 16.971h-7.43v27.47h7.43v-27.47zM114.09 44.431v-27.46h16.53v6.02h-9.36v4.76h8.83v5.89h-8.83v10.79h-7.17zM142.24 16.971h-7.43v27.47h7.43v-27.47zM148.18 44.431v-27.46h7.09l10.2 14.1c.363.563.697 1.143 1 1.74.45.87.94 1.9 1.48 3.1-.15-1.13-.25-2.15-.32-3-.07-.85-.1-1.67-.1-2.36v-13.58h7.06v27.46h-7.06l-10.2-14.18a14.95 14.95 0 01-1-1.74 69.213 69.213 0 01-1.47-3.06c.15 1.15.25 2.16.32 3 .07.84.1 1.68.1 2.37v13.61h-7.1zM187.63 38.281h1.23c2.887 0 4.997-.603 6.33-1.81 1.32-1.21 2-3.13 2-5.75s-.67-4.55-2-5.78c-1.33-1.23-3.44-1.87-6.33-1.87h-1.23v15.21zm-7.26 6.15v-27.46h5.62c2.979-.09 5.959.107 8.9.59a13.114 13.114 0 014.58 2 11.878 11.878 0 013.9 4.67 15.268 15.268 0 011.33 6.49 15.191 15.191 0 01-1.33 6.48 11.802 11.802 0 01-3.89 4.66 12.526 12.526 0 01-4.46 2c-2.565.472-5.173.67-7.78.59h-6.87v-.02zM209.27 44.431v-27.46h16.54v6.02h-9.37v4.76h8.84v5.89h-8.84v4.64h9.37v6.15h-16.54zM237.57 29.95h1.37a5.81 5.81 0 003.47-.83 3.005 3.005 0 001.1-2.59 3.664 3.664 0 00-1-2.93 5.35 5.35 0 00-3.44-.87h-1.5v7.22zm-6.89 14.48V16.97h7.69a30.81 30.81 0 016.29.42 7.998 7.998 0 013.07 1.41 7.378 7.378 0 012.24 2.87 9.36 9.36 0 01.79 3.85 8.3 8.3 0 01-1.54 5.19 7.528 7.528 0 01-4.49 2.65l7.35 11.07h-8.31l-6.2-10.75v10.75h-6.89zM60.55 59.371v-5.43h1.74a2 2 0 011.31.37 1.291 1.291 0 01.48 1.1 1 1 0 01-.23.65 1.31 1.31 0 01-.6.42c.305.059.576.23.76.48a1.56 1.56 0 01-.2 2 2 2 0 01-1.29.39l-1.97.02zm.72-3.12h1.17a1 1 0 00.66-.23.79.79 0 00.25-.63.81.81 0 00-.27-.66 1.26 1.26 0 00-.79-.21h-1l-.02 1.73zm0 .58v2h1.25a1.13 1.13 0 00.77-.24.928.928 0 00.28-.71 1.13 1.13 0 00-.2-.81.888.888 0 00-.71-.27l-1.39.03zM68.62 57.97h-2.25l-.5 1.4h-.74l2.06-5.43h.62l2 5.43h-.74l-.45-1.4zm-2-.61h1.75l-.88-2.48-.87 2.48zM71.69 53.94v4.85h1.8v-4.85h.72v4.85h1.8v-4.85h.72v5.43h-5.77v-5.43h.73zM84.71 59.37h-.73v-4.85h-2.59v4.85h-.72v-5.43h4.04v5.43zM87.13 57.19v2.18h-.76v-5.43h2a1.86 1.86 0 011.33.45 1.72 1.72 0 010 2.36 1.9 1.9 0 01-1.33.44h-1.24zm0-.58h1.32a1 1 0 00.81-.29 1.18 1.18 0 000-1.5 1 1 0 00-.81-.3h-1.32v2.09zM95.63 57.141a2.34 2.34 0 01-.6 1.65 2.049 2.049 0 01-1.58.66 1.94 1.94 0 01-1.52-.66 2.38 2.38 0 01-.56-1.65v-1a2.39 2.39 0 01.58-1.65 1.94 1.94 0 011.52-.66 2.052 2.052 0 011.58.66 2.36 2.36 0 01.6 1.65l-.02 1zm-.72-1a1.89 1.89 0 00-.39-1.23 1.32 1.32 0 00-1.07-.48 1.2 1.2 0 00-1 .48 1.94 1.94 0 00-.38 1.23v1a1.94 1.94 0 00.38 1.23 1.2 1.2 0 001 .48 1.319 1.319 0 001.07-.48c.272-.35.41-.786.39-1.23v-1zM97.09 59.37v-5.43h1.74a2.06 2.06 0 011.31.37 1.314 1.314 0 01.47 1.1.998.998 0 01-.24.66 1.328 1.328 0 01-.59.42c.304.062.574.233.76.48.183.258.277.566.27.88a1.381 1.381 0 01-.47 1.14 2 2 0 01-1.29.39l-1.96-.01zm.72-3.12h1.17a1 1 0 00.66-.23.831.831 0 00.25-.63.81.81 0 00-.27-.66 1.3 1.3 0 00-.79-.21h-1l-.02 1.73zm0 .58v2h1.25c.277.017.55-.069.77-.24a.925.925 0 00.27-.71 1.076 1.076 0 00-.23-.74.87.87 0 00-.7-.27l-1.36-.04zM106.3 57.141a2.337 2.337 0 01-.6 1.65 2.045 2.045 0 01-1.58.66 1.941 1.941 0 01-1.52-.66 2.379 2.379 0 01-.58-1.65v-1a2.39 2.39 0 01.58-1.65 1.94 1.94 0 011.52-.66 2.05 2.05 0 011.58.66c.405.453.62 1.044.6 1.65v1zm-.72-1a1.893 1.893 0 00-.39-1.23 1.316 1.316 0 00-1.07-.48 1.201 1.201 0 00-1 .48 1.94 1.94 0 00-.38 1.23v1a1.94 1.94 0 00.38 1.23 1.201 1.201 0 001 .48 1.317 1.317 0 001.07-.48c.272-.35.41-.786.39-1.23v-1zM111.72 58.79h.73l-.08 1.91h-.65v-1.33h-3.85v1.34h-.61l-.11-1.92h.46c.229-.282.405-.604.52-.95.174-.552.259-1.13.25-1.71l.13-2.19h3.21v4.85zm-2.61-2.66a6.407 6.407 0 01-.22 1.57c-.093.39-.256.76-.48 1.09H111v-4.27h-1.8l-.09 1.61zM117.73 59.37h-.72v-2.4h-2.59v2.4h-.72v-5.43h.72v2.45h2.59v-2.45h.72v5.43zM122.74 53.94h.73v5.43h-.73v-4.14l-.02-.01-2.57 4.15h-.72v-5.43h.72v4.14h.02l2.57-4.14zM126.51 56.92h-.63v2.45h-.72v-5.43h.72v2.4h.56l1.91-2.4h.8l.01.02-2.07 2.6 2.22 2.79-.01.02h-.86l-1.93-2.45zM132.61 59.37v-5.43h1.76a2.06 2.06 0 011.31.37 1.314 1.314 0 01.47 1.1 1 1 0 01-.23.65 1.328 1.328 0 01-.59.42c.304.062.574.233.76.48.183.257.277.566.27.88a1.381 1.381 0 01-.47 1.14 2 2 0 01-1.29.39h-1.99zm.72-3.12h1.17a.999.999 0 00.66-.23.785.785 0 00.25-.63.818.818 0 00-.27-.66 1.3 1.3 0 00-.79-.21h-1l-.02 1.73zm0 .58v2h1.25c.277.017.551-.069.77-.24a.926.926 0 00.27-.71 1.081 1.081 0 00-.25-.81.864.864 0 00-.7-.27l-1.34.03zM140.95 53.94l1.7 4.41h.02l1.7-4.41h.93v5.43h-.72v-2.15l.07-2.21h-.02l-1.73 4.36h-.48l-1.72-4.35h-.02l.07 2.2v2.15h-.72v-5.43h.92zM150.31 53.94h.72v5.43h-.72v-4.14l-.02-.01-2.57 4.15H147v-5.43h.72v4.14h.02l2.57-4.14zM153.45 57.19v2.18h-.72v-5.43h2a1.86 1.86 0 011.33.45 1.72 1.72 0 010 2.36 1.9 1.9 0 01-1.33.44h-1.28zm0-.58h1.32a1 1 0 00.81-.29 1.18 1.18 0 000-1.5 1.002 1.002 0 00-.81-.3h-1.32v2.09zM160.16 59.37v-5.43h1.74a2.06 2.06 0 011.31.37 1.282 1.282 0 01.47 1.1.996.996 0 01-.22.65c-.16.191-.367.336-.6.42.304.062.574.233.76.48.183.257.277.566.27.88a1.381 1.381 0 01-.47 1.14 2 2 0 01-1.29.39h-1.97zm.72-3.12h1.17a.999.999 0 00.66-.23.785.785 0 00.25-.63.812.812 0 00-.27-.66 1.28 1.28 0 00-.79-.21h-1l-.02 1.73zm0 .58v2h1.25c.277.017.551-.069.77-.24a.926.926 0 00.27-.71 1.075 1.075 0 00-.23-.74.864.864 0 00-.7-.27l-1.36-.04zM166.06 56.07h1.31c.483-.028.96.13 1.33.44a1.72 1.72 0 010 2.38 1.815 1.815 0 01-1.33.46h-2v-5.41h.73l-.04 2.13zm0 .58v2.12h1.31a.996.996 0 00.81-.31c.183-.217.279-.495.27-.78a1.061 1.061 0 00-.26-.74 1.079 1.079 0 00-.82-.29h-1.31zm4.49 2.7h-.72v-5.41h.72v5.41zM176.02 57.631a1.683 1.683 0 01-.53 1.28 1.998 1.998 0 01-1.44.52 1.88 1.88 0 01-1.47-.65 2.444 2.444 0 01-.57-1.66v-1a2.444 2.444 0 01.57-1.66 1.883 1.883 0 011.47-.65 2 2 0 011.44.49 1.668 1.668 0 01.53 1.3h-.65a1.208 1.208 0 00-.33-.9 1.267 1.267 0 00-.93-.33 1.118 1.118 0 00-1 .49c-.252.36-.378.792-.36 1.23v1c-.014.441.112.875.36 1.24a1.114 1.114 0 001 .49 1.263 1.263 0 00.93-.33 1.227 1.227 0 00.33-.91l.65.05zM181.42 57.141a2.35 2.35 0 01-.61 1.65 2.045 2.045 0 01-1.58.66 1.941 1.941 0 01-1.52-.66 2.379 2.379 0 01-.58-1.65v-1a2.39 2.39 0 01.58-1.65 1.94 1.94 0 011.52-.66 2.047 2.047 0 011.58.66c.408.452.626 1.042.61 1.65v1zm-.73-1a1.893 1.893 0 00-.39-1.23 1.316 1.316 0 00-1.07-.48 1.201 1.201 0 00-1 .48 1.94 1.94 0 00-.38 1.23v1a1.94 1.94 0 00.38 1.23 1.201 1.201 0 001 .48 1.31 1.31 0 001.07-.48c.272-.35.41-.786.39-1.23v-1zM184.22 56.92h-.63v2.45h-.72v-5.43h.72v2.4h.56l1.91-2.4h.8l.01.02-2.07 2.6 2.22 2.79-.01.02h-.86l-1.93-2.45zM191.39 53.94h.72v5.43h-.72v-4.14l-.02-.01-2.57 4.15h-.73v-5.43h.73v4.14h.02l2.57-4.14zM195.59 56.06l1.25-2.12h.87l-1.69 2.69 1.73 2.74h-.86l-1.28-2.16-1.29 2.16h-.87l1.73-2.74-1.69-2.69h.86l1.24 2.12zM204.85 54.52h-1.72v4.85h-.72v-4.85h-1.71v-.58h4.15v.58zM209.18 56.85h-2.44v1.94h2.81v.58h-3.54v-5.43h3.5v.58h-2.77v1.75h2.44v.58zM212.5 56.06l1.25-2.12h.87l-1.69 2.69 1.73 2.74h-.86l-1.29-2.16-1.28 2.16h-.87l1.73-2.74-1.69-2.69h.86l1.24 2.12zM219.94 59.37h-.72v-2.4h-2.6v2.4h-.72v-5.43h.72v2.45h2.6v-2.45h.72v5.43zM225.67 57.141a2.341 2.341 0 01-.6 1.65 2.045 2.045 0 01-1.58.66 1.941 1.941 0 01-1.52-.66 2.379 2.379 0 01-.58-1.65v-1a2.39 2.39 0 01.58-1.65 1.94 1.94 0 011.52-.66 2.053 2.053 0 011.58.66c.405.453.62 1.044.6 1.65v1zm-.72-1a1.893 1.893 0 00-.39-1.23 1.316 1.316 0 00-1.07-.48 1.201 1.201 0 00-1 .48 1.94 1.94 0 00-.38 1.23v1a1.94 1.94 0 00.38 1.23 1.201 1.201 0 001 .48 1.312 1.312 0 001.07-.48c.272-.35.41-.786.39-1.23v-1zM231.01 53.94v5.43h-.72v-4.85h-1.92v2a4.78 4.78 0 01-.38 2.18 1.308 1.308 0 01-1.25.69h-.2v-.58h.15a.74.74 0 00.73-.53 4.862 4.862 0 00.23-1.76v-2.58h3.36zM236.75 57.141a2.31 2.31 0 01-.61 1.65 2.003 2.003 0 01-1.57.66 1.941 1.941 0 01-1.52-.66 2.383 2.383 0 01-.59-1.65v-1a2.4 2.4 0 01.59-1.65 1.94 1.94 0 011.52-.66 2.003 2.003 0 011.57.66c.412.449.631 1.042.61 1.65v1zm-.72-1a1.838 1.838 0 00-.4-1.23 1.297 1.297 0 00-1.06-.48 1.222 1.222 0 00-1 .48c-.259.356-.39.79-.37 1.23v1c-.02.44.111.874.37 1.23a1.227 1.227 0 001 .48 1.317 1.317 0 001.07-.48c.272-.35.41-.786.39-1.23v-1zM241.48 54.52h-2.55v4.85h-.72v-5.43h3.27v.58zM246.08 53.94h.72v5.43h-.72v-4.14l-.03-.01-2.57 4.15h-.72v-5.43h.72v4.14h.02l2.58-4.14zM251.81 53.941h.72v5.43h-.72v-4.14l-2.57 4.15h-.73v-5.44h.73v4.13l2.57-4.13zm-.21-1.55a.867.867 0 01-.29.7 1.12 1.12 0 01-.8.27 1.16 1.16 0 01-.8-.27.863.863 0 01-.28-.7h.55a.616.616 0 00.13.4.467.467 0 00.39.16.511.511 0 00.4-.16.64.64 0 00.13-.4h.57z" fill="#fff"/><path d="M30.1 13.071a8.78 8.78 0 013.09 6.72 8.596 8.596 0 01-17.19 0 8.74 8.74 0 012.7-6.34A25.56 25.56 0 000 38.221a25.66 25.66 0 0014.6 23.26c-2-2.85-3.11-7-3.1-12.89a64.145 64.145 0 013.09-20.25 12.27 12.27 0 0012.72 3.66c-.979 3.88-1.73 7.813-2.25 11.78-1 10.6 1.37 17.45 7 19.12a25.59 25.59 0 0018.33-24.47v-.42a25.53 25.53 0 00-20.29-24.94z" fill="url(#paint0_linear)"/></g></g><defs><clipPath id="clip0"><path fill="#fff" transform="translate(0 .901)" d="M0 0h317v62H0z"/></clipPath><clipPath id="clip1"><path fill="#fff" transform="translate(-1.63 13.071)" d="M0 0h254.16v49.83H0z"/></clipPath><linearGradient id="paint0_linear" x1="23.378" y1="55.649" x2="23.378" y2="8.789" gradientUnits="userSpaceOnUse"><stop stop-color="#E52622"/><stop offset=".06" stop-color="#E52622"/><stop offset=".15" stop-color="#E52A22"/><stop offset="1" stop-color="#EF7D00"/></linearGradient></defs></svg>