<svg width="21" height="21" fill="none" xmlns="http://www.w3.org/2000/svg"><g clip-path="url(#clip0)"><path d="M19.031 2.625H1.97A1.97 1.97 0 000 4.594v11.812a1.97 1.97 0 001.969 1.969H19.03A1.97 1.97 0 0021 16.406V4.594a1.97 1.97 0 00-1.969-1.969zm0 1.312a.66.66 0 01.252.051L10.5 11.6 1.717 3.988a.653.653 0 01.252-.05H19.03zm0 13.125H1.97a.657.657 0 01-.657-.656V5.375l8.758 7.59a.655.655 0 00.86 0l8.758-7.59v11.031a.657.657 0 01-.657.657z" fill="#868794"/></g><defs><clipPath id="clip0"><path fill="#fff" d="M0 0h21v21H0z"/></clipPath></defs></svg>