<svg width="22" height="21" fill="none" xmlns="http://www.w3.org/2000/svg"><path d="M19.31 13.987c.293 0 .549-.19.624-.459l2.044-7.35a.594.594 0 00-.1-.518.653.653 0 00-.483-.254l-17.64-1.04-.478-2.811a.619.619 0 00-.343-.45L.938.132a.66.66 0 00-.867.268.602.602 0 00.28.827l1.706.834 1.925 11.31-.324 1.949c-1.212.198-2.137 1.207-2.137 2.42 0 1.354 1.154 2.463 2.572 2.463 1.313 0 2.399-.965 2.552-2.154h8.8c.153 1.19 1.239 2.154 2.552 2.154 1.418 0 2.572-1.106 2.572-2.46 0-1.354-1.154-2.45-2.572-2.45-1.071 0-1.991.623-2.377 1.525H6.47a2.508 2.508 0 00-1.524-1.386l.239-1.444H19.31zm-1.313 2.526c.707 0 1.282.55 1.282 1.226 0 .676-.575 1.225-1.282 1.225-.707 0-1.282-.55-1.282-1.225 0-.676.575-1.226 1.282-1.226zM5.375 17.74c0 .676-.575 1.225-1.282 1.225-.707 0-1.283-.55-1.283-1.225 0-.676.576-1.226 1.283-1.226s1.282.55 1.282 1.226zM3.967 5.613l16.564.977-1.716 6.167H5.183L3.967 5.613z" fill="#ADBAD4"/></svg>