<svg width="34" height="34" fill="none" xmlns="http://www.w3.org/2000/svg"><g clip-path="url(#clip0)"><path d="M29.402.523H17.175c-.977 0-1.936.398-2.627 1.088l-13.34 13.34a3.721 3.721 0 000 5.257l12.227 12.226a3.701 3.701 0 002.628 1.09c.952 0 1.904-.364 2.629-1.09l13.34-13.338a3.744 3.744 0 001.09-2.628V4.24a3.723 3.723 0 00-3.72-3.718z" fill="#FFC107"/><path d="M26.931 8.773a2.063 2.063 0 11.002-4.126 2.063 2.063 0 01-.002 4.126z" fill="#fff"/><path d="M11.515 17.752a1.032 1.032 0 10-1.46 1.46l2.23 2.228-4.165-1.042a1.02 1.02 0 00-1.148.492c-.229.403-.16.909.169 1.236L12 26.988a1.031 1.031 0 101.458-1.459L11.23 23.3l4.166 1.043a1.03 1.03 0 00.98-1.729l-4.861-4.862zm8.263 0l-2.187 2.188-.972-.973 2.187-2.187a1.032 1.032 0 10-1.459-1.459l-2.187 2.188-.974-.973 2.188-2.187a1.032 1.032 0 10-1.459-1.459l-2.918 2.916a1.03 1.03 0 000 1.458l4.862 4.86a1.029 1.029 0 001.458 0l2.918-2.916a1.03 1.03 0 10-1.456-1.456zm2.561-10.538a1.03 1.03 0 10-1.716 1.144l1.965 2.95-.215-.093a1.031 1.031 0 00-1.354 1.355l.092.213-2.948-1.965a1.032 1.032 0 00-1.144 1.716l5.834 3.888a1.03 1.03 0 001.232-.066 1.03 1.03 0 00.289-1.199l-.443-1.032 1.033.443a1.032 1.032 0 001.264-1.52l-3.89-5.834z" fill="#FAFAFA"/><path d="M32.075 1.66l-3.64 3.639a2.062 2.062 0 01-2.916 2.915l-1.51 1.51 2.217 3.324a1.033 1.033 0 01-1.264 1.521l-1.032-.443.442 1.033a1.03 1.03 0 01-1.52 1.265l-3.325-2.217-.945.946a1.032 1.032 0 01.224 1.63l-2.187 2.185.972.972 2.187-2.188a1.029 1.029 0 011.458 0 1.032 1.032 0 010 1.46l-2.918 2.915a1.029 1.029 0 01-1.457 0L14.233 19.5l-.487.487 2.628 2.627a1.03 1.03 0 01-.98 1.729L11.23 23.3l2.229 2.23A1.032 1.032 0 0112 26.987l-2.628-2.626-2.006 2.006 6.068 6.066a3.7 3.7 0 002.628 1.09c.951 0 1.904-.364 2.629-1.09l13.34-13.338a3.743 3.743 0 001.089-2.628V4.24a3.708 3.708 0 00-1.045-2.582z" fill="#DEA806"/><path d="M28.435 5.299L25.52 8.214a2.062 2.062 0 002.915-2.915z" fill="#DEDEDE"/><path d="M13.748 19.986l-4.376 4.376L12 26.989a1.031 1.031 0 101.458-1.459l-2.23-2.229 4.167 1.043a1.031 1.031 0 00.979-1.728l-2.626-2.63zm4.834-4.834L14.234 19.5l2.628 2.628a1.028 1.028 0 001.458 0l2.917-2.917a1.031 1.031 0 00-1.457-1.458l-2.188 2.187-.973-.972 2.187-2.188a1.031 1.031 0 00-.224-1.628z" fill="#DADADA"/><path d="M21.063 12.671l-.048.048.095.064-.047-.112zm1.46-1.46l-.048.048.113.048-.065-.096z" fill="#DEA806"/><path d="M24.01 9.724l-1.487 1.487.064.097-.112-.049-1.414 1.414.048.111-.095-.064-1.487 1.487 3.325 2.217a1.03 1.03 0 001.52-1.265l-.442-1.033 1.032.443a1.027 1.027 0 001.199-.289c.292-.35.318-.85.065-1.232L24.01 9.724z" fill="#DADADA"/></g><defs><clipPath id="clip0"><path fill="#fff" transform="translate(.119 .523)" d="M0 0h33v33H0z"/></clipPath></defs></svg>