<svg width="556" height="334" fill="none" xmlns="http://www.w3.org/2000/svg"><path d="M332.047.284a96.645 96.645 0 0125.172 33.224 96.646 96.646 0 018.836 40.735 94.596 94.596 0 01-189.191 0A96.199 96.199 0 01206.58 4.466 281.308 281.308 0 00.77 277.081a282.41 282.41 0 00160.686 255.997c-22.012-31.367-34.228-77.041-34.118-141.866a705.889 705.889 0 0134.008-222.868 135.04 135.04 0 00139.994 40.281 1132.308 1132.308 0 00-24.763 129.649c-11.006 116.662 15.078 192.052 77.041 210.432a281.643 281.643 0 00201.737-269.313v-4.623A280.974 280.974 0 00332.047.284z" fill="#fff"/></svg>