<svg width="17" height="17" fill="none" xmlns="http://www.w3.org/2000/svg"><g clip-path="url(#clip0)" fill="#868794"><path d="M13.436 10.531c-.348-.362-.768-.556-1.213-.556-.441 0-.865.19-1.227.552l-1.134 1.13c-.093-.05-.187-.096-.276-.143a4.105 4.105 0 01-.355-.19c-1.062-.675-2.028-1.554-2.953-2.691-.449-.567-.75-1.044-.97-1.529.295-.269.568-.548.833-.818l.302-.305c.753-.753.753-1.729 0-2.482l-.98-.98a14.94 14.94 0 01-.333-.34 16.945 16.945 0 00-.675-.668c-.348-.345-.764-.528-1.202-.528-.438 0-.861.183-1.22.528l-.007.007-1.22 1.23a2.625 2.625 0 00-.779 1.67c-.086 1.046.223 2.022.46 2.66.58 1.568 1.45 3.021 2.744 4.579a16.885 16.885 0 005.623 4.402c.825.391 1.927.854 3.157.933.076.004.155.007.226.007.83 0 1.525-.298 2.07-.89.004-.007.011-.01.015-.018.187-.226.402-.43.628-.65.154-.146.312-.3.466-.462.355-.37.542-.8.542-1.241 0-.445-.19-.872-.553-1.231l-1.97-1.977zm1.284 3.778c-.003 0-.003.004 0 0-.14.15-.283.287-.438.438-.233.222-.47.456-.692.717-.362.388-.79.57-1.35.57-.053 0-.11 0-.164-.003-1.066-.068-2.056-.484-2.799-.84a15.939 15.939 0 01-5.296-4.147C2.758 9.57 1.94 8.206 1.398 6.742 1.064 5.85.942 5.152.996 4.496c.036-.42.198-.768.495-1.066l1.224-1.223c.176-.165.362-.255.545-.255.226 0 .41.136.524.251l.01.011c.22.205.428.416.647.642.11.115.226.23.34.348l.98.98c.38.38.38.732 0 1.112-.104.104-.205.208-.309.309-.301.308-.588.595-.9.875-.007.007-.014.01-.018.018-.309.309-.251.61-.187.815l.011.032c.255.617.614 1.198 1.159 1.89l.004.004c.99 1.22 2.034 2.171 3.186 2.9.147.093.298.168.441.24.13.064.251.125.355.19.015.007.029.018.043.025a.78.78 0 00.356.09c.297 0 .484-.187.545-.248l1.227-1.227c.122-.122.316-.269.542-.269.222 0 .405.14.516.262l.008.007 1.977 1.977c.37.366.37.743.003 1.123zM9.187 4.044a4.55 4.55 0 012.476 1.284 4.574 4.574 0 011.285 2.476c.04.237.244.402.477.402.029 0 .054-.004.082-.007a.485.485 0 00.399-.56 5.535 5.535 0 00-1.554-2.996A5.534 5.534 0 009.356 3.09a.487.487 0 00-.56.395.48.48 0 00.391.56zM16.98 7.5a9.105 9.105 0 00-2.558-4.934A9.105 9.105 0 009.49.007a.483.483 0 10-.158.955 8.152 8.152 0 014.41 2.285 8.128 8.128 0 012.285 4.41c.04.237.244.402.477.402.03 0 .054-.004.083-.007a.475.475 0 00.395-.553z"/></g><defs><clipPath id="clip0"><path fill="#fff" d="M0 0h17v17H0z"/></clipPath></defs></svg>