<svg width="207" height="204" fill="none" xmlns="http://www.w3.org/2000/svg"><path d="M123.593.24a35.863 35.863 0 0112.618 27.443 35.106 35.106 0 01-35.099 35.1 35.1 35.1 0 01-35.1-35.1A35.69 35.69 0 0177.04 1.792 104.38 104.38 0 00.674 102.945a104.788 104.788 0 0059.621 94.987c-8.167-11.639-12.7-28.586-12.659-52.639a261.927 261.927 0 0112.619-82.695 50.107 50.107 0 0051.944 14.947 420.323 420.323 0 00-9.188 48.105c-4.084 43.288 5.595 71.261 28.586 78.081a104.501 104.501 0 0074.854-99.928v-1.715A104.261 104.261 0 00123.593.24z" fill="url(#paint0_linear)"/><defs><linearGradient id="paint0_linear" x1="96.141" y1="174.113" x2="96.141" y2="-17.249" gradientUnits="userSpaceOnUse"><stop stop-color="#E52622"/><stop offset=".06" stop-color="#E52622"/><stop offset=".15" stop-color="#E52A22"/><stop offset="1" stop-color="#EF7D00"/></linearGradient></defs></svg>