<svg width="41" height="41" fill="none" xmlns="http://www.w3.org/2000/svg"><g clip-path="url(#clip0)"><g clip-path="url(#clip1)"><path d="M30.532 23.54c-.778-.81-1.716-1.243-2.71-1.243-.987 0-1.933.425-2.744 1.235l-2.534 2.526c-.208-.112-.417-.216-.617-.32-.29-.145-.562-.281-.794-.426-2.374-1.507-4.532-3.472-6.601-6.015-1.003-1.267-1.676-2.334-2.165-3.416.657-.602 1.267-1.227 1.86-1.829.225-.224.45-.457.674-.682 1.684-1.684 1.684-3.865 0-5.55l-2.19-2.19a33.248 33.248 0 01-.745-.761 37.87 37.87 0 00-1.508-1.492c-.778-.77-1.709-1.179-2.687-1.179-.978 0-1.925.41-2.727 1.18l-.016.015-2.727 2.751a5.868 5.868 0 00-1.74 3.73c-.193 2.341.497 4.523 1.026 5.95 1.3 3.505 3.24 6.754 6.136 10.234 3.513 4.195 7.74 7.507 12.567 9.841 1.845.874 4.307 1.909 7.058 2.085.169.008.345.016.505.016 1.853 0 3.409-.665 4.628-1.989.008-.016.024-.024.032-.04.417-.505.898-.962 1.404-1.451a31.66 31.66 0 001.042-1.035c.794-.826 1.211-1.789 1.211-2.775 0-.995-.425-1.949-1.235-2.751l-4.403-4.42zm2.871 8.445c-.008 0-.008.008 0 0-.312.337-.633.642-.978.979a21.085 21.085 0 00-1.548 1.604c-.81.866-1.764 1.275-3.015 1.275-.12 0-.25 0-.37-.008-2.382-.153-4.595-1.083-6.255-1.877-4.54-2.197-8.526-5.317-11.838-9.271-2.735-3.297-4.563-6.344-5.774-9.616-.746-1.997-1.019-3.553-.899-5.021a3.682 3.682 0 011.107-2.382l2.735-2.735c.393-.369.81-.57 1.219-.57.505 0 .914.305 1.17.562l.025.024c.49.457.954.93 1.444 1.436.248.256.505.513.761.778l2.19 2.19c.85.85.85 1.635 0 2.486-.232.232-.457.465-.69.69a41.87 41.87 0 01-2.013 1.956c-.016.016-.032.024-.04.04-.69.69-.561 1.364-.417 1.82l.024.073c.57 1.38 1.372 2.679 2.59 4.227l.009.008c2.213 2.727 4.547 4.852 7.122 6.48.328.208.665.377.986.537.289.145.561.281.794.425.032.016.064.04.096.056.273.137.53.201.794.201.666 0 1.083-.417 1.22-.553l2.742-2.743c.273-.273.706-.602 1.211-.602.498 0 .907.313 1.155.586l.016.016 4.42 4.419c.825.818.825 1.66.007 2.51z" fill="#000"/><path d="M21.036 9.039a10.17 10.17 0 015.534 2.871 10.223 10.223 0 012.871 5.534c.089.53.546.898 1.067.898.064 0 .12-.008.184-.016.594-.096.987-.657.89-1.25a12.37 12.37 0 00-3.472-6.698 12.37 12.37 0 00-6.697-3.472 1.088 1.088 0 00-1.251.882c-.104.585.28 1.155.874 1.251zM38.456 16.763c-.714-4.187-2.686-7.997-5.718-11.028C29.706 2.703 25.897.73 21.71.017a1.079 1.079 0 00-1.243.882 1.088 1.088 0 00.89 1.25c3.738.634 7.146 2.407 9.857 5.11 2.711 2.71 4.475 6.12 5.109 9.857.088.529.545.898 1.067.898.064 0 .12-.008.184-.016.586-.088.987-.65.882-1.235z" fill="#EE7304"/></g></g><defs><clipPath id="clip0"><path fill="#fff" transform="translate(.5 .507)" d="M0 0h40v40H0z"/></clipPath><clipPath id="clip1"><path fill="#fff" transform="translate(.5)" d="M0 0h38v38H0z"/></clipPath></defs></svg>