<svg width="22" height="21" fill="none" xmlns="http://www.w3.org/2000/svg"><path d="M19.311 14.523c.292 0 .548-.19.623-.46l2.045-7.349a.594.594 0 00-.1-.518.653.653 0 00-.484-.254l-17.64-1.04-.478-2.811a.619.619 0 00-.343-.45L.938.667a.66.66 0 00-.867.267.602.602 0 00.28.828l1.706.833 1.925 11.31-.324 1.95c-1.211.197-2.136 1.207-2.136 2.42 0 1.354 1.153 2.462 2.571 2.462 1.313 0 2.399-.964 2.552-2.153h8.8c.153 1.189 1.24 2.153 2.552 2.153 1.418 0 2.572-1.105 2.572-2.46 0-1.353-1.154-2.45-2.572-2.45-1.071 0-1.991.624-2.377 1.526H6.47a2.508 2.508 0 00-1.524-1.387l.24-1.443H19.31zm-1.314 2.526c.707 0 1.283.55 1.283 1.225 0 .676-.576 1.226-1.283 1.226s-1.282-.55-1.282-1.226c0-.675.575-1.225 1.282-1.225zM5.375 18.274c0 .676-.575 1.226-1.282 1.226-.707 0-1.282-.55-1.282-1.226 0-.675.575-1.225 1.282-1.225.707 0 1.282.55 1.282 1.225zM3.967 6.148l16.564.978-1.716 6.167H5.183L3.967 6.148z" fill="#868794"/></svg>