<svg width="15" height="12" fill="none" xmlns="http://www.w3.org/2000/svg"><path d="M11.191.112l-3.97 2.43v7l3.975 2.363a.44.44 0 00.664-.378V.487a.44.44 0 00-.669-.375zM1.422 7.477V4.525c0-.17.018-.334.052-.493h-.64A.835.835 0 000 4.866v2.269c0 .461.374.835.835.835h.639a2.376 2.376 0 01-.052-.493zM6.341 9.02H3.795c-.825-.05-1.494-.718-1.494-1.544V4.525c0-.826.669-1.494 1.494-1.444h2.546v5.94zM13.79 9.593a.438.438 0 01-.31-.129l-.887-.886a.44.44 0 11.622-.622l.886.887a.44.44 0 01-.31.75zM12.904 4.32a.438.438 0 01-.311-.75l.887-.887a.44.44 0 01.621.621l-.886.887a.438.438 0 01-.311.129zM14.56 6.513h-1.254a.44.44 0 110-.879h1.254a.44.44 0 110 .88z" fill="#214FA8"/></svg>