<svg width="15" height="15" fill="none" xmlns="http://www.w3.org/2000/svg"><path d="M9.724 7.665L5.008 2.948 7.315.641a.447.447 0 01.632 0L15 7.665H9.724z" fill="#214FA8"/><path d="M.447 7.426H1.49c.74 0 1.342.602 1.342 1.341v1.52h1.087a1.402 1.402 0 011.95-.807l.772-.772-1.555-1.556a1.343 1.343 0 010-1.897l.482-.482 3.655 3.655a.447.447 0 00.316.13h2.563L9.57 11.093a.446.446 0 01-.586-.041l-1.71-1.71-.773.772a1.402 1.402 0 01-1.255 2.023c-.616 0-1.14-.4-1.327-.954H2.832v1.52c0 .74-.602 1.342-1.342 1.342H.447A.447.447 0 010 13.597V7.873c0-.247.2-.447.447-.447zM12.947 8.979l.485.486a.447.447 0 010 .632l-1.669 1.67a.447.447 0 01-.632 0l-.486-.486 2.302-2.302z" fill="#214FA8"/></svg>