<svg width="15" height="16" fill="none" xmlns="http://www.w3.org/2000/svg"><path d="M3.37 2.045V.78a.44.44 0 00-.88 0v1.264a2.953 2.953 0 01.88 0zM14.973 9.552l-.54-1.47a.44.44 0 00-.441-.286l-.727.047-.338-.685a.44.44 0 00-.422-.243l-.762.049-2.4-1.386A2.93 2.93 0 007.152 2.09c.302.267.566.585.775.948.414.717.581 1.528.485 2.348a3.795 3.795 0 01-.57 1.605l.236.41c.136-.089.265-.188.386-.3l5.495 3.173a.44.44 0 00.414.013l.382-.189a.44.44 0 00.218-.545z" fill="#214FA8"/><path d="M9.705 11.168l-.653-.322.05-.762a.44.44 0 00-.244-.422l-.685-.339-1.385-2.4a2.93 2.93 0 00-1.265-4.77 3.807 3.807 0 01-.198 5.752l3.113 5.392a.44.44 0 00.352.219l.425.027a.44.44 0 00.462-.363l.266-1.543a.44.44 0 00-.238-.469z" fill="#214FA8"/><path d="M5.86 4.941a2.93 2.93 0 00-2.49-2.897V3.33h.133c.237 0 .44.182.452.418a.44.44 0 01-.44.46H2.357a.448.448 0 01-.451-.417.44.44 0 01.439-.461h.146V2.044a2.93 2.93 0 00-.44 5.692v6.637a.44.44 0 00.196.366l.355.236a.44.44 0 00.581-.084l1.002-1.203a.44.44 0 00.029-.525l-.404-.606.423-.635a.44.44 0 000-.487l-.423-.636V7.736a2.93 2.93 0 002.05-2.795z" fill="#214FA8"/></svg>