<svg width="15" height="16" fill="none" xmlns="http://www.w3.org/2000/svg"><g clip-path="url(#clip0)" fill="#214FA8"><path d="M13.74 7.613a.625.625 0 01-.625-.625c0-1.753-.682-3.4-1.922-4.64a.624.624 0 11.884-.884 7.761 7.761 0 012.288 5.524c0 .345-.28.625-.625.625zM1.24 7.613a.625.625 0 01-.625-.625c0-2.087.813-4.049 2.288-5.524a.624.624 0 11.884.883 6.52 6.52 0 00-1.922 4.64c0 .346-.28.626-.625.626zM13.352 11.382a4.186 4.186 0 01-1.487-3.203V6.437c0-2.2-1.633-4.02-3.75-4.325v-.676a.625.625 0 10-1.25 0v.676a4.378 4.378 0 00-3.75 4.325v1.742a4.19 4.19 0 01-1.492 3.208 1.095 1.095 0 00.711 1.925h10.313a1.095 1.095 0 00.705-1.93zM7.49 15.812a2.348 2.348 0 002.297-1.875H5.194a2.347 2.347 0 002.296 1.875z"/></g><defs><clipPath id="clip0"><path fill="#fff" transform="translate(0 .812)" d="M0 0h15v15H0z"/></clipPath></defs></svg>