<svg width="19" height="20" fill="none" xmlns="http://www.w3.org/2000/svg"><path d="M15.806 12.092c-.409-.426-.903-.654-1.426-.654-.52 0-1.018.224-1.444.65l-1.334 1.33c-.11-.06-.22-.114-.325-.17-.152-.075-.295-.147-.418-.223-1.25-.793-2.385-1.828-3.474-3.166-.527-.667-.882-1.228-1.14-1.798.347-.316.667-.646.98-.962.118-.118.236-.24.354-.36.887-.886.887-2.034 0-2.92L6.427 2.667c-.13-.131-.266-.266-.393-.401a19.93 19.93 0 00-.793-.786c-.41-.405-.9-.62-1.414-.62-.515 0-1.013.215-1.435.62l-.009.009L.948 2.937a3.088 3.088 0 00-.916 1.962c-.101 1.233.262 2.381.54 3.133.684 1.844 1.706 3.554 3.23 5.386a19.865 19.865 0 006.614 5.18c.97.46 2.267 1.004 3.715 1.097.088.004.181.008.265.008.976 0 1.794-.35 2.436-1.047.004-.008.013-.012.017-.02.22-.267.473-.508.739-.765.181-.173.367-.354.549-.544.417-.435.637-.942.637-1.461 0-.523-.224-1.026-.65-1.448l-2.318-2.326zm1.512 4.445c-.005 0-.005.004 0 0-.165.178-.334.338-.515.515a11.1 11.1 0 00-.815.844c-.426.456-.929.671-1.587.671-.063 0-.131 0-.194-.004-1.254-.08-2.42-.57-3.293-.987a18.75 18.75 0 01-6.23-4.88c-1.44-1.735-2.402-3.339-3.04-5.061-.392-1.051-.536-1.87-.472-2.643.042-.494.232-.903.582-1.253l1.44-1.44c.206-.194.426-.3.641-.3.266 0 .481.161.617.296l.012.013c.258.24.503.49.76.755.13.135.266.27.401.41l1.152 1.152c.448.448.448.861 0 1.309-.122.122-.24.244-.363.363-.354.363-.692.7-1.06 1.03-.008.008-.016.012-.02.02-.363.364-.296.718-.22.959l.013.038c.3.726.722 1.41 1.363 2.225l.005.004c1.165 1.435 2.393 2.553 3.748 3.41.173.11.35.199.52.283.151.076.295.148.417.224.017.008.034.021.05.03a.916.916 0 00.419.105c.35 0 .57-.22.641-.291l1.444-1.444c.143-.143.371-.317.637-.317.262 0 .477.165.608.309l.009.008 2.325 2.326c.435.43.435.874.005 1.321z" fill="#fff"/></svg>