<?xml version="1.0" encoding="utf-8"?><svg viewBox="0 0 432 427" xmlns="http://www.w3.org/2000/svg" xmlns:xlink="http://www.w3.org/1999/xlink"><style>:root>svg{display:none}:root>svg:target{display:block}</style><svg fill="none" viewBox="0 0 432 427" id="big-logo" xmlns="http://www.w3.org/2000/svg"><path d="M257.488.185A75.102 75.102 0 01283.92 57.67a73.523 73.523 0 01-141.451 28.136 73.524 73.524 0 01-5.597-28.137 74.763 74.763 0 0123.097-54.234A218.647 218.647 0 00.003 215.325a219.505 219.505 0 00124.893 198.973c-17.109-24.38-26.604-59.88-26.518-110.265a548.666 548.666 0 0126.433-173.224 104.96 104.96 0 00108.81 31.308 880.048 880.048 0 00-19.247 100.77c-8.554 90.675 11.719 149.272 59.88 163.558a218.897 218.897 0 00113.097-78.671 218.898 218.898 0 0043.703-130.653v-3.592A218.395 218.395 0 00257.488.185z" fill="#fff"/></svg><svg fill="none" viewBox="0 0 24 22" id="cart-icon" xmlns="http://www.w3.org/2000/svg"><path fill-rule="evenodd" clip-rule="evenodd" d="M2.814.178L.886.71l3.831 13.888a3.58 3.58 0 001.008 7.012 3.578 3.578 0 003.576-3.452h7.075a3.578 3.578 0 10.528-2h-8.13a3.587 3.587 0 00-1.977-1.54l-.155-.564H21.06l2.253-10.362.434-2H3.232L2.814.178zm1.282 3.514l2.084 8.362h13.268l1.818-8.362H4.096zm1.63 15.918a1.578 1.578 0 100-3.156 1.578 1.578 0 000 3.156zm14.226 0a1.578 1.578 0 100-3.156 1.578 1.578 0 000 3.156z" fill="#fff"/></svg><svg fill="none" viewBox="0 0 24 22" id="cart-icon-black" xmlns="http://www.w3.org/2000/svg"><path fill-rule="evenodd" clip-rule="evenodd" d="M2.814.178L.886.71l3.831 13.888a3.58 3.58 0 001.008 7.012 3.578 3.578 0 003.576-3.452h7.075a3.578 3.578 0 10.528-2h-8.13a3.587 3.587 0 00-1.977-1.54l-.155-.564H21.06l2.253-10.362.434-2H3.232L2.814.178zm1.282 3.514l2.084 8.362h13.268l1.818-8.362H4.096zm1.63 15.918a1.578 1.578 0 100-3.156 1.578 1.578 0 000 3.156zm14.226 0a1.578 1.578 0 100-3.156 1.578 1.578 0 000 3.156z" fill="#101A24"/></svg><svg fill="none" viewBox="0 0 28 19" id="mail-icon" xmlns="http://www.w3.org/2000/svg"><path fill-rule="evenodd" clip-rule="evenodd" d="M21.965 2.816l-8.01 6.712-8.01-6.713h16.02zm3.114 0l-11.124 9.322L2.83 2.816h-.435v13.628h23.107V2.816h-.423zm2.387-2l.002-.003H.441l.003.002H.395v17.63h27.107V.814h-.036z" fill="#fff"/></svg><svg fill="none" viewBox="0 0 25 25" id="search-icon" xmlns="http://www.w3.org/2000/svg"><circle cx="11.755" cy="11.868" r="6.962" transform="rotate(-45 11.755 11.868)" stroke="#fff" stroke-width="2"/><path fill="#fff" d="M16.73 17.928l1.414-1.415 6.6 6.6-1.414 1.414z"/></svg><svg fill="none" viewBox="0 0 25 25" id="search-icon-black" xmlns="http://www.w3.org/2000/svg"><circle cx="11.755" cy="11.868" r="6.962" transform="rotate(-45 11.755 11.868)" stroke="#101A24" stroke-width="2"/><path fill="#101A24" d="M16.73 17.928l1.414-1.415 6.6 6.6-1.414 1.414z"/></svg><svg fill="none" viewBox="0 0 24 24" id="user-icon" xmlns="http://www.w3.org/2000/svg"><mask id="ga" maskUnits="userSpaceOnUse" x="0" y="0" width="24" height="24"><circle cx="12.362" cy="11.894" r="11.548" fill="#fff"/></mask><g mask="url(#ga)"><circle cx="12.362" cy="25.076" r="8.344" stroke="#fff" stroke-width="2"/></g><circle cx="12.362" cy="11.894" r="10.548" stroke="#fff" stroke-width="2"/><circle cx="12.362" cy="10.389" r="3.205" stroke="#fff" stroke-width="2"/></svg><svg fill="none" viewBox="0 0 24 24" id="user-icon-black" xmlns="http://www.w3.org/2000/svg"><mask id="ha" maskUnits="userSpaceOnUse" x="0" y="0" width="24" height="24"><circle cx="12.362" cy="11.894" r="11.548" fill="#101A24"/></mask><g mask="url(#ha)"><circle cx="12.362" cy="25.076" r="8.344" stroke="#101A24" stroke-width="2"/></g><circle cx="12.362" cy="11.894" r="10.548" stroke="#101A24" stroke-width="2"/><circle cx="12.362" cy="10.389" r="3.205" stroke="#101A24" stroke-width="2"/></svg></svg>