<?xml version="1.0" encoding="utf-8"?><svg viewBox="0 0 556 427" xmlns="http://www.w3.org/2000/svg" xmlns:xlink="http://www.w3.org/1999/xlink"><style>:root>svg{display:none}:root>svg:target{display:block}</style><svg fill="none" viewBox="0 0 432 427" id="big-logo" xmlns="http://www.w3.org/2000/svg"><path d="M257.488.185A75.102 75.102 0 01283.92 57.67a73.523 73.523 0 01-141.451 28.136 73.524 73.524 0 01-5.597-28.137 74.763 74.763 0 0123.097-54.234A218.647 218.647 0 00.003 215.325a219.505 219.505 0 00124.893 198.973c-17.109-24.38-26.604-59.88-26.518-110.265a548.666 548.666 0 0126.433-173.224 104.96 104.96 0 00108.81 31.308 880.048 880.048 0 00-19.247 100.77c-8.554 90.675 11.719 149.272 59.88 163.558a218.897 218.897 0 00113.097-78.671 218.898 218.898 0 0043.703-130.653v-3.592A218.395 218.395 0 00257.488.185z" fill="#fff"/></svg><svg fill="none" viewBox="0 0 24 22" id="cart-icon" xmlns="http://www.w3.org/2000/svg"><path fill-rule="evenodd" clip-rule="evenodd" d="M2.814.178L.886.71l3.831 13.888a3.58 3.58 0 001.008 7.012 3.578 3.578 0 003.576-3.452h7.075a3.578 3.578 0 10.528-2h-8.13a3.587 3.587 0 00-1.977-1.54l-.155-.564H21.06l2.253-10.362.434-2H3.232L2.814.178zm1.282 3.514l2.084 8.362h13.268l1.818-8.362H4.096zm1.63 15.918a1.578 1.578 0 100-3.156 1.578 1.578 0 000 3.156zm14.226 0a1.578 1.578 0 100-3.156 1.578 1.578 0 000 3.156z" fill="#fff"/></svg><svg fill="none" viewBox="0 0 24 22" id="cart-icon-black" xmlns="http://www.w3.org/2000/svg"><path fill-rule="evenodd" clip-rule="evenodd" d="M2.814.178L.886.71l3.831 13.888a3.58 3.58 0 001.008 7.012 3.578 3.578 0 003.576-3.452h7.075a3.578 3.578 0 10.528-2h-8.13a3.587 3.587 0 00-1.977-1.54l-.155-.564H21.06l2.253-10.362.434-2H3.232L2.814.178zm1.282 3.514l2.084 8.362h13.268l1.818-8.362H4.096zm1.63 15.918a1.578 1.578 0 100-3.156 1.578 1.578 0 000 3.156zm14.226 0a1.578 1.578 0 100-3.156 1.578 1.578 0 000 3.156z" fill="#101A24"/></svg><svg fill="none" viewBox="0 0 37 37" id="documents-icon" xmlns="http://www.w3.org/2000/svg"><g clip-path="url(#dclip0)"><path d="M9.613.816a2.257 2.257 0 00-2.25 2.25v31.5a2.257 2.257 0 002.25 2.25h22.5a2.257 2.257 0 002.25-2.25V9.816l-9-9H9.613z" fill="#ECEEF1"/><path d="M27.613 9.816h6.75l-9-9v6.75a2.257 2.257 0 002.25 2.25z" fill="#9AA0A7"/><path d="M29.863 30.066c0 .62-.506 1.125-1.125 1.125H3.988a1.128 1.128 0 01-1.125-1.125v-11.25a1.13 1.13 0 011.125-1.125h24.75c.619 0 1.125.507 1.125 1.125v11.25z" fill="#DA3632"/><path d="M28.738 31.191H7.363v1.125h21.375c.619 0 1.125-.506 1.125-1.125v-1.125c0 .62-.506 1.125-1.125 1.125z" fill="#CAD1D8"/></g><defs><clipPath id="dclip0"><path fill="#fff" transform="translate(.613 .816)" d="M0 0h36v36H0z"/></clipPath></defs></svg><svg fill="none" viewBox="0 0 49 49" id="feather-icon" xmlns="http://www.w3.org/2000/svg"><g clip-path="url(#eclip0)"><path d="M24.5 48.08a1.02 1.02 0 01-.43-.096c-4.998-2.377-11.322-2.547-19.902-.53a3 3 0 01-2.542-.587A2.994 2.994 0 01.5 44.52V12.3a3.01 3.01 0 011.652-2.674c4.224-2.134 7.92-3.288 11.296-3.524.532-.028 1.03.378 1.07.928a1.005 1.005 0 01-.928 1.068c-3.106.216-6.552 1.3-10.54 3.316a.994.994 0 00-.55.886v32.22a1.003 1.003 0 001.222.983c8.796-2.07 15.42-1.92 20.778.474 5.354-2.393 11.978-2.543 20.79-.471a.977.977 0 00.834-.199 1 1 0 00.376-.788V12.3a.994.994 0 00-.546-.883c-4.402-2.224-8.158-3.32-11.482-3.354a1 1 0 01.01-2h.01c3.638.038 7.682 1.206 12.362 3.568A3.007 3.007 0 0148.5 12.3v32.22c0 .917-.41 1.773-1.126 2.347a3.008 3.008 0 01-2.532.589c-8.59-2.02-14.914-1.853-19.914.525a.978.978 0 01-.428.099z" fill="#000"/><path d="M24.5 47.58a1 1 0 01-1-1v-21.5a1 1 0 012 0v21.5a1 1 0 01-1 1z" fill="#000"/><path d="M9.5 32.079a1.001 1.001 0 01-.954-1.296C13.068 16.28 18.64 6.399 25.578.573a2.09 2.09 0 012.026-.38c.66.232 1.136.79 1.278 1.49.932 4.74.768 8.784-.488 12.018a1 1 0 01-1.428.508L24.5 12.8v5.758a1 1 0 01-.4.8c-2.642 1.982-6.216 3.136-10.626 3.432a120.282 120.282 0 00-3.018 8.584c-.136.43-.53.704-.956.704zM26.92 2.073c-4.846 4.058-8.996 10.2-12.592 18.642 3.34-.342 6.082-1.236 8.172-2.668v-6.968a.999.999 0 011.496-.868l2.904 1.656c.762-2.69.77-5.978.02-9.794z" fill="#EE7304"/></g><defs><clipPath id="eclip0"><path fill="#fff" transform="translate(.5 .08)" d="M0 0h48v48H0z"/></clipPath></defs></svg><svg fill="none" viewBox="0 0 47 46" id="guarantee-icon" xmlns="http://www.w3.org/2000/svg"><g clip-path="url(#fclip0)"><path d="M39.32 28.686a18.137 18.137 0 003.108-10.16C42.428 8.31 33.937 0 23.5 0 13.062 0 4.571 8.31 4.571 18.526c0 3.749 1.145 7.24 3.108 10.16L.275 39.254l8.473-1.546L10.328 46l6.982-9.967c1.94.66 4.023 1.018 6.19 1.018a19.22 19.22 0 006.189-1.018L36.67 46l1.58-8.292 8.472 1.546-7.404-10.568zM11.824 39.069l-.862-4.523-4.621.843 3.118-4.45a19.002 19.002 0 005.261 3.996l-2.896 4.134zM7.34 18.526c0-8.72 7.249-15.815 16.158-15.815 8.91 0 16.159 7.095 16.159 15.815 0 8.72-7.249 15.815-16.159 15.815S7.341 27.246 7.341 18.526zm28.695 16.02l-.862 4.523-2.896-4.134a19.002 19.002 0 005.26-3.997l3.12 4.451-4.622-.843z" fill="#000"/><path d="M20.125 22.595l-4.504-4.408-1.958 1.917 6.462 6.325 13.211-12.93-1.958-1.917-11.253 11.013z" fill="#EE7304"/></g><defs><clipPath id="fclip0"><path fill="#fff" d="M0 0h47v46H0z"/></clipPath></defs></svg><svg fill="none" viewBox="0 0 52 52" id="handshake-icon" xmlns="http://www.w3.org/2000/svg"><g clip-path="url(#gclip0)"><path d="M51.292 22.505l-8.536-11.089a1 1 0 00-1.329-.233l-5.511 3.505h-7.188a.99.99 0 00-.275.046l-5.573 1.604-5.783-1.582-5.619-3.573a1 1 0 00-1.315.215L.722 23.093a1 1 0 00.126 1.386l4.948 4.259 4.44 5.983a3.538 3.538 0 00.078 4.916c.599.598 1.36.936 2.143 1.015a3.51 3.51 0 00.994 3.04 3.511 3.511 0 002.5 1.035l.037-.002-.001.072c0 .944.367 1.832 1.035 2.5a3.513 3.513 0 003.05.991 3.516 3.516 0 001.017 2.152 3.522 3.522 0 002.499 1.034c.905 0 1.81-.345 2.499-1.034l.54-.54.227.183c.683.661 1.57.992 2.458.992a3.524 3.524 0 003.532-3.588 3.527 3.527 0 003.587-3.585 3.514 3.514 0 002.554-1.035 3.524 3.524 0 001.033-2.554 3.525 3.525 0 002.555-1.033 3.54 3.54 0 00.464-4.424l3.242-6.79 4.873-4.193a1 1 0 00.14-1.368zM11.158 13.35l4.04 2.569L6.41 26.627l-3.522-3.032 8.271-10.245zm.57 22.703l1.22-1.22a1.53 1.53 0 01.949-.443h.025a1.525 1.525 0 011.225.475c.566.597.535 1.573-.067 2.175l-1.182 1.182a1.536 1.536 0 01-2.17 0 1.536 1.536 0 010-2.17zm3.138 6.224c-.29-.29-.45-.675-.45-1.085 0-.41.16-.794.45-1.084l2.364-2.365a1.55 1.55 0 011.744-.301c.597.284.933.932.845 1.584a1.618 1.618 0 01-.457.924l-2.327 2.327c-.29.29-.675.45-1.085.45-.41 0-.794-.16-1.084-.45zm3.57 3.605c-.29-.29-.45-.675-.45-1.085 0-.41.16-.794.45-1.084l2.364-2.365a1.551 1.551 0 011.855-.243c.541.315.825.934.732 1.55a1.62 1.62 0 01-.455.9l-2.326 2.327c-.29.29-.676.45-1.085.45-.41 0-.795-.16-1.085-.45zm4.067 3.144a1.536 1.536 0 010-2.17l1.22-1.219a1.613 1.613 0 01.117-.106c.199-.162.432-.27.68-.316l.018-.003c.043-.008.086-.014.13-.018l.053-.002c.035-.002.07-.005.107-.004a1.524 1.524 0 011.193.597c.46.6.398 1.494-.173 2.065l-1.176 1.176a1.536 1.536 0 01-2.17 0zm18.655-11.16a1.535 1.535 0 01-2.169 0 .926.926 0 00-.068-.062l-6.43-6.498a1 1 0 00-1.422 1.407l6.5 6.568.002.002a1.536 1.536 0 01-1.085 2.62c-.41 0-.795-.16-1.084-.45l-4.349-4.394a1 1 0 10-1.421 1.407l4.282 4.326a.956.956 0 00.07.079 1.536 1.536 0 010 2.17 1.536 1.536 0 01-2.17-.001l-2.373-2.398a1 1 0 00-1.422 1.406l2.307 2.331a.883.883 0 00.07.079 1.535 1.535 0 01-2.17 2.17c-.068-.07-.149-.122-.226-.182-.065-.05-.082-.084-.05-.163.033-.08.083-.154.116-.235a3.74 3.74 0 00.095-.276 3.605 3.605 0 00.13-1.539 3.519 3.519 0 00-1.494-2.434 3.51 3.51 0 00-1.488-.576c.258-1.136-.052-2.368-.856-3.218a3.508 3.508 0 00-2.625-1.106 3.53 3.53 0 00-.945-2.5 3.509 3.509 0 00-2.52-1.105 3.596 3.596 0 00-.853.09 3.507 3.507 0 00-1.169-2.142 3.506 3.506 0 00-2.26-.858 3.542 3.542 0 00-2.414.908L7.8 28.083l9.248-11.266 2.948.806-3.85 6.792a3.51 3.51 0 00-.33 2.685 3.51 3.51 0 001.819 2.216l.012.005a3.51 3.51 0 002.517.242 3.512 3.512 0 002.132-1.663l2.502-4.414 4.466.316 11.894 11.894a1.537 1.537 0 010 2.17zm.415-4.585L30.415 22.124a1.001 1.001 0 00-.636-.29l-5.469-.388a1.016 1.016 0 00-.94.505l-2.813 4.963c-.202.356-.53.613-.926.722a1.52 1.52 0 01-1.165-.144 1.524 1.524 0 01-.722-.925 1.522 1.522 0 01.144-1.166l3.754-6.626 1.521-.438.03-.01 5.679-1.64h6.86l8.565 10.889-2.724 5.705zm4.034-7.275l-7.92-10.074 4.042-2.571 7.401 9.613-3.523 3.032z" fill="#101A24"/><path d="M31.397 12.81a.997.997 0 00.707-.293l6.831-6.83a1 1 0 10-1.414-1.415l-6.831 6.831a1 1 0 00.707 1.707zm-11.502-.293a.997.997 0 001.415 0 1 1 0 000-1.414l-6.831-6.831a1 1 0 10-1.414 1.414l6.83 6.831zM26 12.81a1 1 0 001-1V6.157a1 1 0 00-2 0v5.653a1 1 0 001 1zm-.923-10.277c.159.384.554.637.972.615.412-.021.775-.3.902-.692a1.007 1.007 0 00-.343-1.1 1.01 1.01 0 00-1.163-.037c-.395.26-.547.78-.368 1.214z" fill="#EE7304"/></g><defs><clipPath id="gclip0"><path fill="#fff" transform="translate(.5 .754)" d="M0 0h51v51H0z"/></clipPath></defs></svg><svg fill="none" viewBox="0 0 46 46" id="help-icon" xmlns="http://www.w3.org/2000/svg"><path d="M28.378 25.632a.897.897 0 100 1.794.897.897 0 000-1.794z" fill="#EE7304"/><path d="M28.521 16.134l-2.014-1.162c.052-.342.078-.67.078-.99a6.5 6.5 0 00-.078-.99l2.014-1.163a.896.896 0 00.328-1.224L27.057 7.5a.897.897 0 00-1.225-.328L23.81 8.34a7.07 7.07 0 00-1.706-.975V4.75a.896.896 0 00-.896-.896h-3.585a.896.896 0 00-.897.896v2.616a7.22 7.22 0 00-1.704.974l-2.024-1.168a.896.896 0 00-1.224.328L9.98 10.605a.896.896 0 00.328 1.224l2.014 1.163c-.052.342-.078.67-.078.99 0 .32.026.648.078.99l-2.014 1.163a.896.896 0 00-.328 1.224l1.793 3.104a.896.896 0 001.224.328l2.024-1.168c.514.397 1.09.726 1.704.974v2.347c0 .495.402.897.896.897h3.586a.896.896 0 00.896-.897V20.6a7.061 7.061 0 001.706-.975l2.022 1.167a.895.895 0 001.225-.328l1.792-3.104a.896.896 0 00-.328-1.225zm-2.569 2.657l-1.794-1.036a.896.896 0 00-1.063.124 5.33 5.33 0 01-2.146 1.226.896.896 0 00-.638.858v2.085H18.52v-2.085a.896.896 0 00-.638-.858 5.32 5.32 0 01-2.144-1.225.896.896 0 00-1.064-.125l-1.795 1.036-.896-1.552 1.792-1.036a.896.896 0 00.424-.984 5.313 5.313 0 01-.16-1.237c0-.381.052-.786.16-1.238a.896.896 0 00-.424-.984l-1.792-1.035.896-1.553 1.795 1.037a.896.896 0 001.064-.125 5.32 5.32 0 012.144-1.226A.896.896 0 0018.52 8V5.647h1.792V8c0 .396.26.744.638.858a5.329 5.329 0 012.146 1.226.896.896 0 001.063.125l1.794-1.036.897 1.552-1.793 1.035a.896.896 0 00-.424.984c.108.452.16.857.16 1.238 0 .38-.052.786-.16 1.237a.896.896 0 00.424.984l1.793 1.036-.897 1.552z" fill="#000"/><path d="M19.415 10.396a3.59 3.59 0 00-3.585 3.585 3.589 3.589 0 003.585 3.586A3.589 3.589 0 0023 13.982a3.59 3.59 0 00-3.585-3.585zm0 5.378a1.795 1.795 0 01-1.792-1.792c0-.989.804-1.793 1.792-1.793.989 0 1.793.804 1.793 1.793 0 .988-.804 1.792-1.793 1.792z" fill="#000"/><path d="M24.792 25.632H12.245a.896.896 0 000 1.793h12.547a.896.896 0 000-1.793z" fill="#EE7304"/><path d="M43.255 14.878H40.03V2.688A2.692 2.692 0 0037.34 0H2.745A2.692 2.692 0 00.056 2.689V28.32a2.692 2.692 0 002.689 2.69h5.019v5.784a.896.896 0 001.432.719l3.945-2.941v3.249a2.692 2.692 0 002.69 2.688h16.404l6.323 5.282a.896.896 0 001.47-.688V40.51h3.227a2.692 2.692 0 002.69-2.688V17.566a2.692 2.692 0 00-2.69-2.688zM9.556 35.01v-4.896a.896.896 0 00-.896-.896H2.745a.897.897 0 01-.896-.897V2.69c0-.494.402-.897.896-.897H37.34c.494 0 .896.403.896.897v25.63a.897.897 0 01-.896.897H17.623a.896.896 0 00-.536.177l-7.53 5.615zm34.596 2.812a.897.897 0 01-.897.896h-4.122a.896.896 0 00-.897.896v3.573l-5.101-4.26a.896.896 0 00-.575-.209H15.83a.897.897 0 01-.896-.896v-4.586l2.986-2.226h19.42a2.692 2.692 0 002.689-2.689v-11.65h3.226c.495 0 .897.401.897.896v20.255z" fill="#101A24"/></svg><svg fill="none" viewBox="0 0 7 11" id="link-arrow" xmlns="http://www.w3.org/2000/svg"><path fill="#DA3632" d="M5.5.857L6.74 2.1 2.039 6.802.796 5.56z"/><path fill="#DA3632" d="M.796 5.56l1.242-1.24L6.74 9.022l-1.242 1.242z"/></svg><svg fill="none" viewBox="0 0 28 19" id="mail-icon" xmlns="http://www.w3.org/2000/svg"><path fill-rule="evenodd" clip-rule="evenodd" d="M21.965 2.816l-8.01 6.712-8.01-6.713h16.02zm3.114 0l-11.124 9.322L2.83 2.816h-.435v13.628h23.107V2.816h-.423zm2.387-2l.002-.003H.441l.003.002H.395v17.63h27.107V.814h-.036z" fill="#fff"/></svg><svg fill="none" viewBox="0 0 28 19" id="mail-icon-black" xmlns="http://www.w3.org/2000/svg"><path fill-rule="evenodd" clip-rule="evenodd" d="M21.965 2.816l-8.01 6.712-8.01-6.713h16.02zm3.114 0l-11.124 9.322L2.83 2.816h-.435v13.628h23.107V2.816h-.423zm2.387-2l.002-.003H.441l.003.002H.395v17.63h27.107V.814h-.036z" fill="#101A24"/></svg><svg fill="none" viewBox="0 0 556 334" id="new-white-bg" xmlns="http://www.w3.org/2000/svg"><path d="M332.047.284a96.645 96.645 0 0125.172 33.224 96.646 96.646 0 018.836 40.735 94.596 94.596 0 01-189.191 0A96.199 96.199 0 01206.58 4.466 281.308 281.308 0 00.77 277.081a282.41 282.41 0 00160.686 255.997c-22.012-31.367-34.228-77.041-34.118-141.866a705.889 705.889 0 0134.008-222.868 135.04 135.04 0 00139.994 40.281 1132.308 1132.308 0 00-24.763 129.649c-11.006 116.662 15.078 192.052 77.041 210.432a281.643 281.643 0 00201.737-269.313v-4.623A280.974 280.974 0 00332.047.284z" fill="#fff"/></svg><svg fill="none" viewBox="0 0 23 26" id="play-icon" xmlns="http://www.w3.org/2000/svg"><path d="M1.355 1.841L20.162 12.7 1.355 23.557V1.841z" stroke="#fff" stroke-width="2"/></svg><svg fill="none" viewBox="0 0 207 204" id="present-img-bottom" xmlns="http://www.w3.org/2000/svg"><path d="M123.593.24a35.863 35.863 0 0112.618 27.443 35.106 35.106 0 01-35.099 35.1 35.1 35.1 0 01-35.1-35.1A35.69 35.69 0 0177.04 1.792 104.38 104.38 0 00.674 102.945a104.788 104.788 0 0059.621 94.987c-8.167-11.639-12.7-28.586-12.659-52.639a261.927 261.927 0 0112.619-82.695 50.107 50.107 0 0051.944 14.947 420.323 420.323 0 00-9.188 48.105c-4.084 43.288 5.595 71.261 28.586 78.081a104.501 104.501 0 0074.854-99.928v-1.715A104.261 104.261 0 00123.593.24z" fill="#983331"/></svg><svg fill="none" viewBox="0 0 207 204" id="present-img-top" xmlns="http://www.w3.org/2000/svg"><path d="M123.593.24a35.863 35.863 0 0112.618 27.443 35.106 35.106 0 01-35.099 35.1 35.1 35.1 0 01-35.1-35.1A35.69 35.69 0 0177.04 1.792 104.38 104.38 0 00.674 102.945a104.788 104.788 0 0059.621 94.987c-8.167-11.639-12.7-28.586-12.659-52.639a261.927 261.927 0 0112.619-82.695 50.107 50.107 0 0051.944 14.947 420.323 420.323 0 00-9.188 48.105c-4.084 43.288 5.595 71.261 28.586 78.081a104.501 104.501 0 0074.854-99.928v-1.715A104.261 104.261 0 00123.593.24z" fill="url(#opaint0_linear)"/><defs><linearGradient id="opaint0_linear" x1="96.141" y1="174.113" x2="96.141" y2="-17.249" gradientUnits="userSpaceOnUse"><stop stop-color="#E52622"/><stop offset=".06" stop-color="#E52622"/><stop offset=".15" stop-color="#E52A22"/><stop offset="1" stop-color="#EF7D00"/></linearGradient></defs></svg><svg fill="none" viewBox="0 0 25 25" id="search-icon" xmlns="http://www.w3.org/2000/svg"><circle cx="11.755" cy="11.868" r="6.962" transform="rotate(-45 11.755 11.868)" stroke="#fff" stroke-width="2"/><path fill="#fff" d="M16.73 17.928l1.414-1.415 6.6 6.6-1.414 1.414z"/></svg><svg fill="none" viewBox="0 0 25 25" id="search-icon-black" xmlns="http://www.w3.org/2000/svg"><circle cx="11.755" cy="11.868" r="6.962" transform="rotate(-45 11.755 11.868)" stroke="#101A24" stroke-width="2"/><path fill="#101A24" d="M16.73 17.928l1.414-1.415 6.6 6.6-1.414 1.414z"/></svg><svg fill="none" viewBox="0 0 41 41" id="support-icon" xmlns="http://www.w3.org/2000/svg"><g clip-path="url(#rclip0)"><g clip-path="url(#rclip1)"><path d="M30.532 23.54c-.778-.81-1.716-1.243-2.71-1.243-.987 0-1.933.425-2.744 1.235l-2.534 2.526c-.208-.112-.417-.216-.617-.32-.29-.145-.562-.281-.794-.426-2.374-1.507-4.532-3.472-6.601-6.015-1.003-1.267-1.676-2.334-2.165-3.416.657-.602 1.267-1.227 1.86-1.829.225-.224.45-.457.674-.682 1.684-1.684 1.684-3.865 0-5.55l-2.19-2.19a33.248 33.248 0 01-.745-.761 37.87 37.87 0 00-1.508-1.492c-.778-.77-1.709-1.179-2.687-1.179-.978 0-1.925.41-2.727 1.18l-.016.015-2.727 2.751a5.868 5.868 0 00-1.74 3.73c-.193 2.341.497 4.523 1.026 5.95 1.3 3.505 3.24 6.754 6.136 10.234 3.513 4.195 7.74 7.507 12.567 9.841 1.845.874 4.307 1.909 7.058 2.085.169.008.345.016.505.016 1.853 0 3.409-.665 4.628-1.989.008-.016.024-.024.032-.04.417-.505.898-.962 1.404-1.451a31.66 31.66 0 001.042-1.035c.794-.826 1.211-1.789 1.211-2.775 0-.995-.425-1.949-1.235-2.751l-4.403-4.42zm2.871 8.445c-.008 0-.008.008 0 0-.312.337-.633.642-.978.979a21.085 21.085 0 00-1.548 1.604c-.81.866-1.764 1.275-3.015 1.275-.12 0-.25 0-.37-.008-2.382-.153-4.595-1.083-6.255-1.877-4.54-2.197-8.526-5.317-11.838-9.271-2.735-3.297-4.563-6.344-5.774-9.616-.746-1.997-1.019-3.553-.899-5.021a3.682 3.682 0 011.107-2.382l2.735-2.735c.393-.369.81-.57 1.219-.57.505 0 .914.305 1.17.562l.025.024c.49.457.954.93 1.444 1.436.248.256.505.513.761.778l2.19 2.19c.85.85.85 1.635 0 2.486-.232.232-.457.465-.69.69a41.87 41.87 0 01-2.013 1.956c-.016.016-.032.024-.04.04-.69.69-.561 1.364-.417 1.82l.024.073c.57 1.38 1.372 2.679 2.59 4.227l.009.008c2.213 2.727 4.547 4.852 7.122 6.48.328.208.665.377.986.537.289.145.561.281.794.425.032.016.064.04.096.056.273.137.53.201.794.201.666 0 1.083-.417 1.22-.553l2.742-2.743c.273-.273.706-.602 1.211-.602.498 0 .907.313 1.155.586l.016.016 4.42 4.419c.825.818.825 1.66.007 2.51z" fill="#000"/><path d="M21.036 9.039a10.17 10.17 0 015.534 2.871 10.223 10.223 0 012.871 5.534c.089.53.546.898 1.067.898.064 0 .12-.008.184-.016.594-.096.987-.657.89-1.25a12.37 12.37 0 00-3.472-6.698 12.37 12.37 0 00-6.697-3.472 1.088 1.088 0 00-1.251.882 1.07 1.07 0 00.874 1.251zm17.42 7.724a20.346 20.346 0 00-5.718-11.028C29.706 2.703 25.897.73 21.71.017a1.079 1.079 0 00-1.243.882 1.088 1.088 0 00.89 1.25c3.738.634 7.146 2.407 9.857 5.11a18.17 18.17 0 015.109 9.857c.088.529.545.898 1.067.898.064 0 .12-.008.184-.016.586-.088.987-.65.882-1.235z" fill="#EE7304"/></g></g><defs><clipPath id="rclip0"><path fill="#fff" transform="translate(.5 .507)" d="M0 0h40v40H0z"/></clipPath><clipPath id="rclip1"><path fill="#fff" transform="translate(.5)" d="M0 0h38v38H0z"/></clipPath></defs></svg><svg fill="none" viewBox="0 0 24 24" id="user-icon" xmlns="http://www.w3.org/2000/svg"><mask id="sa" maskUnits="userSpaceOnUse" x="0" y="0" width="24" height="24"><circle cx="12.362" cy="11.894" r="11.548" fill="#fff"/></mask><g mask="url(#sa)"><circle cx="12.362" cy="25.076" r="8.344" stroke="#fff" stroke-width="2"/></g><circle cx="12.362" cy="11.894" r="10.548" stroke="#fff" stroke-width="2"/><circle cx="12.362" cy="10.389" r="3.205" stroke="#fff" stroke-width="2"/></svg><svg fill="none" viewBox="0 0 24 24" id="user-icon-black" xmlns="http://www.w3.org/2000/svg"><mask id="ta" maskUnits="userSpaceOnUse" x="0" y="0" width="24" height="24"><circle cx="12.362" cy="11.894" r="11.548" fill="#101A24"/></mask><g mask="url(#ta)"><circle cx="12.362" cy="25.076" r="8.344" stroke="#101A24" stroke-width="2"/></g><circle cx="12.362" cy="11.894" r="10.548" stroke="#101A24" stroke-width="2"/><circle cx="12.362" cy="10.389" r="3.205" stroke="#101A24" stroke-width="2"/></svg></svg>